#!OML:ASF C:\Vicon Data\Big\jianyuan-11\jianyuan\Session 1\male.ASF
:FULLY-SPECIFIED
:DEGREES
237
root -16.179643 16.568886 -7.591312 -17.607161 -43.889464 16.903624
lowerback 2.271176 0.981390 -6.005597 
upperback 6.191500 1.610140 -0.710438 
thorax 5.030540 0.627956 2.661103 
lowerneck -13.371745 -6.130035 -10.879039 
upperneck 24.539489 -7.917752 9.306813 
head 10.945829 -3.372362 4.162727 
rclavicle 0.000000 0.000000 
rhumerus -48.110919 -32.033863 -64.595896 
rradius 36.609994 
rwrist -1.238345 
rhand -19.093455 -0.892743 
rfingers 0.000000 
rthumb 7.214927 -30.749704 
lclavicle 0.000000 0.000000 
lhumerus -13.124170 3.744781 92.781915 
lradius 50.132224 
lwrist -5.288993 
lhand -14.124039 -9.036562 
lfingers 0.000000 
lthumb 12.009496 20.598845 
rfemur -31.102926 2.716469 8.534411 
rtibia 35.915768 
rfoot -4.933667 -8.667515 
rtoes 8.153314 
lfemur 20.197148 -0.357384 -31.708355 
ltibia 0.000000 
lfoot -11.705712 6.537335 
ltoes -5.370114 
238
root -16.224567 16.568733 -7.555245 -17.574629 -43.906139 16.906487
lowerback 2.162665 0.957438 -6.020059 
upperback 6.182720 1.584925 -0.721782 
thorax 5.085350 0.612810 2.659221 
lowerneck -13.378339 -6.115763 -10.860194 
upperneck 24.571151 -7.900070 9.298090 
head 10.955473 -3.362782 4.159714 
rclavicle 0.000000 0.000000 
rhumerus -48.147949 -32.122383 -64.546470 
rradius 36.641871 
rwrist -1.213498 
rhand -19.148179 -1.009613 
rfingers 0.000000 
rthumb 7.162084 -30.868408 
lclavicle 0.000000 0.000000 
lhumerus -12.992329 3.539334 92.768306 
lradius 50.376302 
lwrist -5.273289 
lhand -14.104023 -9.218595 
lfingers 0.000000 
lthumb 12.028799 20.415726 
rfemur -31.053391 3.010715 8.389506 
rtibia 35.365751 
rfoot -5.258179 -8.936170 
rtoes 8.622835 
lfemur 20.366969 -0.312479 -31.701617 
ltibia 0.000000 
lfoot -11.725949 6.647738 
ltoes -6.277271 
239
root -16.269170 16.568600 -7.518812 -17.560277 -43.917089 16.929157
lowerback 2.062558 0.927450 -6.048183 
upperback 6.174030 1.551130 -0.729333 
thorax 5.136062 0.592788 2.668522 
lowerneck -13.380915 -6.100863 -10.835993 
upperneck 24.595484 -7.874761 9.257153 
head 10.959010 -3.353348 4.144720 
rclavicle 0.000000 0.000000 
rhumerus -48.169608 -32.192638 -64.485033 
rradius 36.654245 
rwrist -1.167100 
rhand -19.184299 -1.102484 
rfingers 0.000000 
rthumb 7.127211 -30.962499 
lclavicle 0.000000 0.000000 
lhumerus -12.885997 3.328069 92.762258 
lradius 50.648687 
lwrist -5.207548 
lhand -14.096137 -9.331630 
lfingers 0.000000 
lthumb 12.036411 20.302283 
rfemur -31.000980 3.299980 8.227195 
rtibia 34.832536 
rfoot -5.539779 -9.221446 
rtoes 8.801224 
lfemur 20.543678 -0.266208 -31.715324 
ltibia 0.000000 
lfoot -11.742088 6.760015 
ltoes -7.077977 
240
root -16.312661 16.568600 -7.481507 -17.619693 -43.910068 17.026894
lowerback 2.008515 0.881224 -6.128556 
upperback 6.158951 1.492503 -0.730510 
thorax 5.155435 0.558888 2.711924 
lowerneck -13.361839 -6.081817 -10.832904 
upperneck 24.603841 -7.827810 9.169186 
head 10.948715 -3.342587 4.118813 
rclavicle 0.000000 0.000000 
rhumerus -48.157012 -32.186280 -64.387957 
rradius 36.605435 
rwrist -1.087732 
rhand -19.146026 -1.084589 
rfingers 0.000000 
rthumb 7.164182 -30.943363 
lclavicle 0.000000 0.000000 
lhumerus -12.880244 3.062793 92.771281 
lradius 51.039349 
lwrist -4.947855 
lhand -14.133017 -9.201751 
lfingers 0.000000 
lthumb 12.000863 20.434239 
rfemur -30.931641 3.564753 8.004418 
rtibia 34.337108 
rfoot -5.698703 -9.539511 
rtoes 8.131974 
lfemur 20.747941 -0.211739 -31.801135 
ltibia 0.000000 
lfoot -11.766917 6.858689 
ltoes -7.317752 
241
root -16.358124 16.568859 -7.446442 -17.619219 -43.894507 17.055715
lowerback 1.927732 0.842221 -6.189765 
upperback 6.150527 1.445624 -0.728407 
thorax 5.196272 0.530868 2.748823 
lowerneck -13.328522 -6.075149 -10.762173 
upperneck 24.584073 -7.808834 9.056261 
head 10.924190 -3.341737 4.067505 
rclavicle 0.000000 0.000000 
rhumerus -48.142326 -32.144853 -64.364390 
rradius 36.613352 
rwrist -1.149997 
rhand -19.135320 -1.097650 
rfingers 0.000000 
rthumb 7.174542 -30.956077 
lclavicle 0.000000 0.000000 
lhumerus -12.777412 2.853114 92.770098 
lradius 51.346117 
lwrist -4.819995 
lhand -14.145882 -9.208224 
lfingers 0.000000 
lthumb 11.988444 20.428465 
rfemur -30.858989 3.836462 7.835504 
rtibia 33.869273 
rfoot -5.980759 -9.836460 
rtoes 8.270640 
lfemur 20.922561 -0.188692 -31.820495 
ltibia 0.000000 
lfoot -11.760125 6.970991 
ltoes -7.534553 
242
root -16.404848 16.569284 -7.412808 -17.580459 -43.873487 17.040479
lowerback 1.829852 0.807836 -6.238723 
upperback 6.146357 1.406255 -0.724208 
thorax 5.250832 0.506609 2.781565 
lowerneck -13.286100 -6.076393 -10.648199 
upperneck 24.546324 -7.807741 8.927381 
head 10.890568 -3.347223 3.999958 
rclavicle 0.000000 0.000000 
rhumerus -48.126304 -32.081008 -64.387816 
rradius 36.657534 
rwrist -1.302806 
rhand -19.142239 -1.130501 
rfingers 0.000000 
rthumb 7.167891 -30.989152 
lclavicle 0.000000 0.000000 
lhumerus -12.612519 2.678978 92.762391 
lradius 51.599252 
lwrist -4.776414 
lhand -14.143394 -9.301868 
lfingers 0.000000 
lthumb 11.990811 20.334639 
rfemur -30.784220 4.112605 7.701022 
rtibia 33.419080 
rfoot -6.341532 -10.119909 
rtoes 8.925799 
lfemur 21.078229 -0.185734 -31.797372 
ltibia 0.000000 
lfoot -11.733119 7.092006 
ltoes -7.736667 
243
root -16.451353 16.568545 -7.379464 -17.611344 -43.858516 17.036627
lowerback 1.818385 0.799243 -6.264168 
upperback 6.134038 1.396594 -0.753769 
thorax 5.245667 0.501744 2.764844 
lowerneck -13.255794 -6.071681 -10.458125 
upperneck 24.579184 -7.817735 8.806581 
head 10.883489 -3.347192 3.922978 
rclavicle 0.000000 0.000000 
rhumerus -48.233551 -32.293081 -64.270274 
rradius 36.604926 
rwrist -1.169271 
rhand -19.135236 -1.105103 
rfingers 0.000000 
rthumb 7.174619 -30.963495 
lclavicle 0.000000 0.000000 
lhumerus -12.583812 2.273095 92.697018 
lradius 51.989241 
lwrist -4.546581 
lhand -14.164510 -9.121124 
lfingers 0.000000 
lthumb 11.970504 20.516584 
rfemur -30.660707 4.349506 7.592004 
rtibia 33.034211 
rfoot -6.606851 -10.368615 
rtoes 8.994400 
lfemur 21.306135 -0.164540 -31.773373 
ltibia 0.000000 
lfoot -11.690842 7.191090 
ltoes -8.176390 
244
root -16.497934 16.567265 -7.345080 -17.662722 -43.847979 17.052353
lowerback 1.796231 0.791577 -6.299933 
upperback 6.130560 1.389657 -0.777818 
thorax 5.255595 0.497055 2.759980 
lowerneck -13.225310 -6.070840 -10.332777 
upperneck 24.606729 -7.829307 8.730799 
head 10.879667 -3.348978 3.873291 
rclavicle 0.000000 0.000000 
rhumerus -48.325131 -32.479861 -64.151655 
rradius 36.571420 
rwrist -1.056825 
rhand -19.140084 -1.119495 
rfingers 0.000000 
rthumb 7.169926 -30.978024 
lclavicle 0.000000 0.000000 
lhumerus -12.547451 1.907467 92.651735 
lradius 52.353261 
lwrist -4.358959 
lhand -14.182482 -9.011852 
lfingers 0.000000 
lthumb 11.953210 20.626882 
rfemur -30.525578 4.575128 7.475046 
rtibia 32.661919 
rfoot -6.845423 -10.617746 
rtoes 8.991284 
lfemur 21.551865 -0.132414 -31.765755 
ltibia 0.000000 
lfoot -11.681579 7.259056 
ltoes -8.356465 
245
root -16.544708 16.564867 -7.308311 -17.754327 -43.846945 17.111411
lowerback 1.742201 0.783723 -6.361159 
upperback 6.147830 1.386251 -0.786388 
thorax 5.305007 0.491045 2.786359 
lowerneck -13.193348 -6.079295 -10.360782 
upperneck 24.615963 -7.843465 8.756261 
head 10.880867 -3.355370 3.886256 
rclavicle 0.000000 0.000000 
rhumerus -48.370285 -32.584862 -64.043116 
rradius 36.589770 
rwrist -1.017565 
rhand -19.173005 -1.229180 
rfingers 0.000000 
rthumb 7.138180 -31.088782 
lclavicle 0.000000 0.000000 
lhumerus -12.481668 1.653581 92.657072 
lradius 52.646317 
lwrist -4.283474 
lhand -14.191237 -9.088814 
lfingers 0.000000 
lthumb 11.944755 20.550424 
rfemur -30.368466 4.778684 7.337842 
rtibia 32.312314 
rfoot -7.031889 -10.870925 
rtoes 8.877809 
lfemur 21.831549 -0.077146 -31.795319 
ltibia 0.000000 
lfoot -11.748442 7.258486 
ltoes -7.927381 
246
root -16.592047 16.562837 -7.271455 -17.835405 -43.856881 17.151782
lowerback 1.725886 0.752713 -6.409593 
upperback 6.147591 1.346168 -0.778280 
thorax 5.317483 0.468004 2.821153 
lowerneck -13.206032 -6.062732 -10.349693 
upperneck 24.676913 -7.797593 8.658733 
head 10.896227 -3.343540 3.856202 
rclavicle 0.000000 0.000000 
rhumerus -48.343759 -32.568676 -63.980909 
rradius 36.557823 
rwrist -1.005458 
rhand -19.172920 -1.257117 
rfingers 0.000000 
rthumb 7.138256 -31.116742 
lclavicle 0.000000 0.000000 
lhumerus -12.434134 1.476997 92.661016 
lradius 52.948340 
lwrist -4.150624 
lhand -14.179900 -9.045038 
lfingers 0.000000 
lthumb 11.955657 20.593556 
rfemur -30.215239 4.951703 7.235581 
rtibia 32.001840 
rfoot -7.258482 -11.115156 
rtoes 9.040452 
lfemur 22.107997 -0.015562 -31.806310 
ltibia 0.000000 
lfoot -11.790861 7.281186 
ltoes -7.412227 
247
root -16.639705 16.561016 -7.234550 -17.910527 -43.873021 17.181580
lowerback 1.730906 0.708605 -6.450792 
upperback 6.137448 1.285338 -0.760738 
thorax 5.309063 0.435329 2.860707 
lowerneck -13.243971 -6.032017 -10.316488 
upperneck 24.767117 -7.717763 8.491630 
head 10.919597 -3.321402 3.801812 
rclavicle 0.000000 0.000000 
rhumerus -48.276682 -32.483935 -63.944912 
rradius 36.497424 
rwrist -1.008712 
rhand -19.154163 -1.238809 
rfingers 0.000000 
rthumb 7.156333 -31.097864 
lclavicle 0.000000 0.000000 
lhumerus -12.396923 1.344143 92.664173 
lradius 53.255435 
lwrist -3.985325 
lhand -14.157197 -8.932963 
lfingers 0.000000 
lthumb 11.977510 20.704338 
rfemur -30.064211 5.107448 7.153086 
rtibia 31.713503 
rfoot -7.507776 -11.354324 
rtoes 9.359293 
lfemur 22.382617 0.049595 -31.806796 
ltibia 0.000000 
lfoot -11.819452 7.317049 
ltoes -6.848384 
